<?xml version="1.0" encoding="UTF-8" standalone="no"?>
<!-- Created with Inkscape (http://www.inkscape.org/) -->

<svg
   xmlns:dc="http://purl.org/dc/elements/1.1/"
   xmlns:cc="http://creativecommons.org/ns#"
   xmlns:rdf="http://www.w3.org/1999/02/22-rdf-syntax-ns#"
   xmlns:svg="http://www.w3.org/2000/svg"
   xmlns="http://www.w3.org/2000/svg"
   xmlns:sodipodi="http://sodipodi.sourceforge.net/DTD/sodipodi-0.dtd"
   xmlns:inkscape="http://www.inkscape.org/namespaces/inkscape"
   width="744.09448819"
   height="1052.3622047"
   id="svg2"
   version="1.1"
   inkscape:version="0.48.3.1 r9886"
   sodipodi:docname="20.svg">
  <defs
     id="defs4" />
  <sodipodi:namedview
     id="base"
     pagecolor="#ffffff"
     bordercolor="#666666"
     borderopacity="1.0"
     inkscape:pageopacity="0.0"
     inkscape:pageshadow="2"
     inkscape:zoom="0.49497475"
     inkscape:cx="703.67858"
     inkscape:cy="514.03122"
     inkscape:document-units="mm"
     inkscape:current-layer="layer1"
     showgrid="false"
     inkscape:window-width="1273"
     inkscape:window-height="1062"
     inkscape:window-x="326"
     inkscape:window-y="96"
     inkscape:window-maximized="0"
     showguides="true"
     inkscape:guide-bbox="true">
    <inkscape:grid
       type="xygrid"
       id="grid3165"
       empspacing="5"
       visible="true"
       enabled="true"
       snapvisiblegridlinesonly="true" />
    <sodipodi:guide
       orientation="0,1"
       position="322.85714,295"
       id="guide3189" />
  </sodipodi:namedview>
  <metadata
     id="metadata7">
    <rdf:RDF>
      <cc:Work
         rdf:about="">
        <dc:format>image/svg+xml</dc:format>
        <dc:type
           rdf:resource="http://purl.org/dc/dcmitype/StillImage" />
        <dc:title></dc:title>
      </cc:Work>
    </rdf:RDF>
  </metadata>
  <g
     inkscape:label="Layer 1"
     inkscape:groupmode="layer"
     id="layer1">
    <g
       style="font-size:430.36709595px;font-style:normal;font-variant:normal;font-weight:bold;font-stretch:normal;text-align:start;line-height:125%;letter-spacing:0px;word-spacing:0px;writing-mode:lr-tb;text-anchor:start;fill:#000000;fill-opacity:1;stroke:none;font-family:Optima;-inkscape-font-specification:Optima Bold"
       id="text2985"
       transform="translate(-141.61829,381.96657)">
      <path
         d="m 142.04866,647.58616 0,18.07542 c 15.49318,-0.57383 30.98638,-0.86074 46.47965,-0.86074 15.49313,0 30.98633,0 46.47964,0 16.35383,0 32.42085,0 48.20112,0 15.77995,0 31.84697,0.28691 48.20111,0.86074 -0.28711,-4.01676 -0.71748,-8.32043 -1.2911,-12.91102 -0.28711,-4.59056 -0.43057,-9.3246 -0.43036,-14.20211 -2.1e-4,-4.87746 0.14325,-9.46804 0.43036,-13.77175 0.57362,-4.59054 1.00399,-9.32457 1.2911,-14.20211 -20.6578,1.43461 -41.02849,2.29534 -61.11212,2.5822 -19.79702,0.28696 -40.02425,0.57387 -60.68176,0.86073 l -0.43037,-0.86073 c 24.96118,-21.23137 45.33187,-39.88059 61.11213,-55.94772 16.06687,-16.06692 28.54751,-30.41247 37.44193,-43.03671 9.18098,-12.91085 15.49302,-24.3873 18.93616,-34.42937 3.44273,-10.32861 5.16419,-20.22705 5.1644,-29.69533 -2.1e-4,-8.32021 -1.57822,-16.78408 -4.73404,-25.39166 -2.86931,-8.894 -8.17717,-16.92751 -15.92358,-24.10055 -7.45988,-7.45943 -17.78868,-13.48456 -30.98643,-18.07542 -12.91116,-4.5903 -29.26509,-6.88559 -49.06185,-6.88588 -25.24828,2.9e-4 -45.18861,5.30815 -59.82103,15.92359 -14.63251,10.61598 -24.53094,23.67044 -29.69533,39.1634 5.73821,4.59081 11.33298,9.18139 16.78432,13.77175 5.45128,4.30389 11.04604,9.18138 16.78432,14.63248 l 4.30367,-1.2911 c -6e-5,-5.73802 0.57377,-12.19352 1.72147,-19.36652 1.14758,-7.17255 3.29942,-13.91496 6.4555,-20.22725 3.15596,-6.59871 7.31617,-12.05002 12.48065,-16.35395 5.45123,-4.59032 12.19365,-6.88561 20.22725,-6.88588 5.45122,2.7e-4 10.75907,1.14792 15.92359,3.44294 5.16428,2.00864 9.75486,5.45158 13.77174,10.32881 4.30354,4.87775 7.60302,11.33325 9.89845,19.36652 2.58206,7.74684 3.87316,17.50181 3.8733,29.26496 -1.4e-4,14.05885 -2.15197,28.1175 -6.45551,42.17598 -4.3038,14.05881 -11.33312,28.69127 -21.08798,43.89744 -9.75509,15.20641 -22.37918,31.41689 -37.87231,48.63148 -15.49327,16.92783 -34.28595,35.4336 -56.37809,55.51736"
         id="path3030"
         inkscape:connector-curvature="0"
         sodipodi:nodetypes="ccssscccccccccccccccccccccscccccccsscc" />
      <path
         d="m 520.18668,521.91897 c -1.6e-4,26.96978 -0.86089,48.91848 -2.5822,65.84616 -1.43471,16.92783 -3.73,30.2692 -6.88588,40.02414 -2.86925,9.46811 -6.74255,15.92361 -11.61991,19.36652 -4.59071,3.44295 -10.04202,5.16442 -16.35395,5.16441 -8.03363,10e-6 -14.48913,-2.58219 -19.36652,-7.74661 -4.87758,-5.16438 -8.60743,-13.19789 -11.18954,-24.10056 -2.58229,-10.90258 -4.30376,-24.81777 -5.16441,-41.74561 -0.5739,-17.21458 -0.86081,-37.58527 -0.86073,-61.11212 -8e-5,-24.67421 0.7172,-44.90145 2.15184,-60.68177 1.43447,-16.06681 3.72976,-28.83435 6.88587,-38.30267 3.15593,-9.46782 7.02923,-16.06677 11.61991,-19.79688 4.87739,-3.72958 10.47215,-5.5945 16.78432,-5.59478 6.31192,2.8e-4 11.76323,1.8652 16.35395,5.59478 4.59044,3.4432 8.32028,9.8987 11.18954,19.36652 3.15588,9.46831 5.45117,22.52277 6.88588,39.1634 1.4344,16.64105 2.15167,38.15939 2.15183,64.55507 M 380.31737,521.4886 c -10e-6,22.95303 2.00837,43.75409 6.02514,62.40323 4.01674,18.36239 10.18533,33.99905 18.50579,46.91001 8.60729,12.91104 19.36646,22.80947 32.27753,29.69533 12.91093,6.59896 28.26067,9.89844 46.04928,9.89844 34.71613,0 60.53813,-13.48482 77.46608,-40.4545 16.92756,-27.25652 25.39143,-65.55916 25.39166,-114.90802 -2.3e-4,-46.47945 -8.89447,-81.33915 -26.68276,-104.5792 -17.50178,-23.23955 -41.88922,-34.85945 -73.16241,-34.85974 -33.85563,2.9e-4 -59.96454,12.62438 -78.32681,37.87231 -18.36236,25.24843 -27.54351,61.25577 -27.5435,108.02214"
         id="path3032"
         inkscape:connector-curvature="0"
         sodipodi:nodetypes="ccccscccscsccccccccccscsccsc" />
    </g>
  </g>
</svg>
