<?xml version="1.0" encoding="UTF-8" standalone="no"?>
<svg
   xmlns:dc="http://purl.org/dc/elements/1.1/"
   xmlns:cc="http://creativecommons.org/ns#"
   xmlns:rdf="http://www.w3.org/1999/02/22-rdf-syntax-ns#"
   xmlns:svg="http://www.w3.org/2000/svg"
   xmlns="http://www.w3.org/2000/svg"
   xmlns:sodipodi="http://sodipodi.sourceforge.net/DTD/sodipodi-0.dtd"
   xmlns:inkscape="http://www.inkscape.org/namespaces/inkscape"
   width="375.59055"
   height="44.043308"
   viewBox="0 0 106 12.43"
   version="1.1"
   id="svg3065"
   inkscape:version="0.48.4 r9939"
   sodipodi:docname="ag03-il.svg">
  <metadata
     id="metadata3105">
    <rdf:RDF>
      <cc:Work
         rdf:about="">
        <dc:format>image/svg+xml</dc:format>
        <dc:type
           rdf:resource="http://purl.org/dc/dcmitype/StillImage" />
        <dc:title>Airfoil plot (ag03-il) AG03 (flat aft bottom) by AirfoilTools.com</dc:title>
      </cc:Work>
    </rdf:RDF>
  </metadata>
  <defs
     id="defs3103" />
  <sodipodi:namedview
     pagecolor="#ffffff"
     bordercolor="#666666"
     borderopacity="1"
     objecttolerance="10"
     gridtolerance="10"
     guidetolerance="10"
     inkscape:pageopacity="0"
     inkscape:pageshadow="2"
     inkscape:window-width="1855"
     inkscape:window-height="1176"
     id="namedview3101"
     showgrid="false"
     inkscape:zoom="1.6209645"
     inkscape:cx="202.54446"
     inkscape:cy="124.81557"
     inkscape:window-x="65"
     inkscape:window-y="24"
     inkscape:window-maximized="1"
     inkscape:current-layer="svg3065"
     units="mm" />
  <title
     id="title3067">Airfoil plot (ag03-il) AG03 (flat aft bottom) by AirfoilTools.com</title>
  <path
     d="m 100.21428,11.050657 -0.510002,-0.05 -0.99,-0.1 -1.17,-0.12 -1.24,-0.12 -1.25,-0.13 -1.26,-0.12 -1.27,-0.13 -1.26,-0.13 -1.26,-0.12 -1.27,-0.1300007 -1.26,-0.120001 -1.26,-0.1199986 -1.26,-0.13 -1.26,-0.12 -1.26,-0.12 -1.26,-0.12 -1.26,-0.12 -1.26,-0.11 -1.26,-0.12 -1.26,-0.11 -1.27,-0.11 -1.26,-0.12 -1.26,-0.11 -1.26,-0.1 -1.26,-0.11 -1.26,-0.11 -1.26,-0.1 -1.27,-0.11 -1.26,-0.1 -1.26,-0.1 -1.26,-0.1 -1.26,-0.09 -1.26,-0.1 -1.26,-0.09 -1.26,-0.09 -1.26,-0.09 -1.25,-0.08 -1.26,-0.08 -1.26,-0.08 -1.26,-0.08 -1.26,-0.08 -1.25,-0.07 -1.26,-0.06 -1.26,-0.07 -1.25,-0.06 -1.26,-0.06 -1.26,-0.05 -1.25,-0.05 -1.26,-0.05 -1.25,-0.04 -1.26,-0.04 -1.25,-0.03 -1.25,-0.03 -1.25,-0.03 -1.25,-0.01 -1.25,-0.02 -1.25,-0.01 -1.25,0 -1.25,0.01 -1.24,0.01 -1.24,0.02 -1.24,0.02 -1.24,0.04 -1.23,0.04 -1.23,0.05 -1.22,0.07 -1.22,0.07 -1.22,0.09 -1.2,0.1 -1.2,0.11 -1.19,0.13 -1.18,0.15 -1.159999,0.17 -1.1500005,0.18 -1.12,0.21 -1.1,0.24 -1.06,0.26 -1.01,0.28 -0.93,0.31 -0.84,0.33 -0.69,0.32 -0.54,0.29 -0.4,0.2699986 -0.29999999,0.2300017 -0.21999999,0.2 -0.16,0.17 -0.12,0.15 -0.09,0.14 -0.07,0.13 -0.05,0.11 -0.02,0.12 -0.01,0.11 0.03,0.11 0.1,0.11 0.15,0.11 0.23,0.12 0.29999998,0.11 0.4,0.12 0.52,0.12 0.68,0.12 0.87,0.11 1.02,0.09 1.08,0.07 1.13,0.05 1.16,0.04 1.19,0.02 1.2099995,0.01 1.22,0 1.22,-0.01 1.24,-0.01 1.24,-0.01 1.24,-0.02 1.25,-0.02 1.26,-0.01 1.25,-0.02 1.26,-0.02 1.27,-0.02 1.26,-0.02 1.27,-0.02 1.27,-0.01 1.27,-0.02 1.27,-0.02 1.27,-0.02 1.27,-0.02 1.27,-0.02 1.27,-0.02 1.26,-0.01 1.27,-0.02 1.27,-0.02 1.27,-0.02 1.27,-0.02 1.26,-0.02 1.27,-0.01 1.26,-0.02 1.27,-0.02 1.27,-0.02 1.26,-0.02 1.27,-0.02 1.27,-0.01 1.26,-0.02 1.27,-0.02 1.27,-0.02 1.26,-0.02 1.27,-0.02 1.27,-0.01 1.26,-0.02 1.27,-0.02 1.27,-0.02 1.26,-0.02 1.27,-0.02 1.26,-0.02 1.27,-0.01 1.27,-0.02 1.26,-0.02 1.27,-0.02 1.27,-0.02 1.26,-0.02 1.27,-0.01 1.27,-0.02 1.27,-0.02 1.26,-0.02 1.27,-0.02 1.27,-0.02 1.27,-0.01 1.27,-0.02 1.27,-0.02 1.27,-0.02 1.27,-0.02 1.27,-0.02 1.27,-0.02 1.27,-0.01 1.27,-0.02 1.27,-0.02 1.27,-0.02 1.26,-0.02 1.25,-0.02 1.19,-0.01 1,-0.02 0.520002,-0.01"
     id="path3093"
     inkscape:connector-curvature="0"
     style="fill:#000000;stroke:#000000;stroke-width:0.50000001000000005;stroke-miterlimit:4;stroke-opacity:1;stroke-dasharray:none;fill-opacity:1" />
</svg>
