<?xml version="1.0" encoding="UTF-8" standalone="no"?>
<svg
   xmlns:dc="http://purl.org/dc/elements/1.1/"
   xmlns:cc="http://creativecommons.org/ns#"
   xmlns:rdf="http://www.w3.org/1999/02/22-rdf-syntax-ns#"
   xmlns:svg="http://www.w3.org/2000/svg"
   xmlns="http://www.w3.org/2000/svg"
   xmlns:sodipodi="http://sodipodi.sourceforge.net/DTD/sodipodi-0.dtd"
   xmlns:inkscape="http://www.inkscape.org/namespaces/inkscape"
   viewBox="0 0 1307 1712"
   id="svg6657"
   version="1.1"
   inkscape:version="0.48.4 r9939"
   width="100%"
   height="100%"
   sodipodi:docname="tree.svg">
  <defs
     id="defs10269" />
  <sodipodi:namedview
     pagecolor="#ffffff"
     bordercolor="#666666"
     borderopacity="1"
     objecttolerance="10"
     gridtolerance="10"
     guidetolerance="10"
     inkscape:pageopacity="0"
     inkscape:pageshadow="2"
     inkscape:window-width="1053"
     inkscape:window-height="819"
     id="namedview10267"
     showgrid="false"
     inkscape:zoom="1.5596"
     inkscape:cx="196.46826"
     inkscape:cy="223.21595"
     inkscape:window-x="529"
     inkscape:window-y="134"
     inkscape:window-maximized="0"
     inkscape:current-layer="svg6657" />
  <metadata
     id="metadata10265">
    <rdf:RDF>
      <cc:Work>
        <dc:format>image/svg+xml</dc:format>
        <dc:type
           rdf:resource="http://purl.org/dc/dcmitype/StillImage" />
        <cc:license
           rdf:resource="http://creativecommons.org/licenses/publicdomain/" />
        <dc:publisher>
          <cc:Agent
             rdf:about="http://openclipart.org/">
            <dc:title>Openclipart</dc:title>
          </cc:Agent>
        </dc:publisher>
        <dc:title></dc:title>
        <dc:date>2013-11-12T09:12:42</dc:date>
        <dc:description>These are simple Christmas tree designs. </dc:description>
        <dc:source>http://openclipart.org/detail/188663/christmas-tree-by-wanglizhong-188663</dc:source>
        <dc:creator>
          <cc:Agent>
            <dc:title>wanglizhong</dc:title>
          </cc:Agent>
        </dc:creator>
        <dc:subject>
          <rdf:Bag>
            <rdf:li>upload2openclipart</rdf:li>
            <rdf:li>christmas</rdf:li>
            <rdf:li>xmas</rdf:li>
            <rdf:li>tree</rdf:li>
            <rdf:li>coloringcontest2013</rdf:li>
            <rdf:li>vectorized</rdf:li>
          </rdf:Bag>
        </dc:subject>
      </cc:Work>
      <cc:License
         rdf:about="http://creativecommons.org/licenses/publicdomain/">
        <cc:permits
           rdf:resource="http://creativecommons.org/ns#Reproduction" />
        <cc:permits
           rdf:resource="http://creativecommons.org/ns#Distribution" />
        <cc:permits
           rdf:resource="http://creativecommons.org/ns#DerivativeWorks" />
      </cc:License>
    </rdf:RDF>
  </metadata>
  <path
     style="fill:#000000;stroke:#000000;stroke-width:1px;stroke-linecap:butt;stroke-linejoin:miter;stroke-opacity:1"
     d="m 160.9387,1642.1103 73.09567,-7.0531 -8.97666,-44.2421 54.50115,-3.8472 15.38856,7.0531 14.10618,9.6179 3.20595,-5.7707 -11.54142,-19.8769 c 0,0 -16.67094,-4.4884 -19.2357,-7.6943 -2.56476,-3.206 -29.49474,-39.1126 -29.49474,-39.1126 l 28.21236,1.9236 -23.72403,-27.5712 -12.8238,-33.3419 26.28879,1.2824 -3.84714,-7.6942 -19.87689,-16.671 -25.00641,-50.654 33.98307,5.1295 -64.11901,-85.2783 -7.69428,-28.8535 -8.33547,0 1.92357,25.0064 -38.4714,69.8897 -21.15927,16.6709 37.18902,0 -23.72403,48.0893 -19.87689,16.6709 27.57117,1.9236 -25.00641,46.8069 -19.235703,21.1592 2.56476,7.6943 26.288793,-9.6178 -13.46499,21.8004 -19.235703,21.8005 -24.365222,23.724 -17.312131,12.1826 19.235701,2.5648 18.594512,-10.259 27.571173,-8.9767 27.57117,-1.2824 14.74737,-1.9236 0,39.7538 z"
     id="path12094"
     inkscape:connector-curvature="0"
     sodipodi:nodetypes="ccccccccccccccccccccccccccccccccccccccccccc" />
  <path
     style="fill:#ffffff;stroke:#000000;stroke-width:1px;stroke-linecap:butt;stroke-linejoin:miter;stroke-opacity:1"
     d="m 111.56707,1580.556 158.37394,-5.7707 -41.03616,-44.8833 -83.35471,-0.6412 z"
     id="path12096"
     inkscape:connector-curvature="0"
     sodipodi:nodetypes="ccccc" />
  <path
     style="fill:#ffffff;stroke:#000000;stroke-width:1px;stroke-linecap:butt;stroke-linejoin:miter;stroke-opacity:1"
     d="m 135.93229,1511.3075 20.51808,-43.6009 71.81329,3.8471 14.74737,35.9067 z"
     id="path12098"
     inkscape:connector-curvature="0" />
  <path
     style="fill:#ffffff;stroke:#000000;stroke-width:1px;stroke-linecap:butt;stroke-linejoin:miter;stroke-opacity:1"
     d="m 151.32085,1445.2649 17.95332,-42.9597 42.31855,-1.9236 18.59451,46.8069 z"
     id="path12100"
     inkscape:connector-curvature="0" />
  <path
     style="fill:#ffffff;stroke:#000000;stroke-width:1px;stroke-linecap:butt;stroke-linejoin:miter;stroke-opacity:1"
     d="m 159.01513,1387.5578 26.28879,-54.5011 30.77713,53.2188 z"
     id="path12102"
     inkscape:connector-curvature="0" />
  <path
     style="fill:#ffffff;stroke:#000000;stroke-width:1px;stroke-linecap:butt;stroke-linejoin:miter;stroke-opacity:1"
     d="m 175.04488,1620.951 -0.64119,-29.4947 34.62427,-0.6412 3.20595,25.6476 z"
     id="path12104"
     inkscape:connector-curvature="0" />
</svg>
